<mxfile host="app.diagrams.net" modified="2023-11-29T03:48:59.635Z" agent="Mozilla/5.0 (Windows NT 10.0; Win64; x64) AppleWebKit/537.36 (KHTML, like Gecko) Chrome/119.0.0.0 Safari/537.36" etag="Hr2oek1JHGqVHSYy9Dv3" version="22.1.4" type="github">
  <diagram name="第 1 页" id="E4tgZrRw8eY_V6HLv9W9">
    <mxGraphModel dx="1434" dy="790" grid="1" gridSize="10" guides="1" tooltips="1" connect="1" arrows="1" fold="1" page="1" pageScale="1" pageWidth="827" pageHeight="1169" math="0" shadow="0">
      <root>
        <mxCell id="0" />
        <mxCell id="1" parent="0" />
        <mxCell id="7cflbCVq24lOZb8qxzIy-3" value="" style="rounded=0;whiteSpace=wrap;html=1;fillColor=#D6FFF0;strokeColor=#82b366;gradientColor=#A3FFD4;gradientDirection=north;" vertex="1" parent="1">
          <mxGeometry x="40" y="50" width="720" height="640" as="geometry" />
        </mxCell>
        <mxCell id="7cflbCVq24lOZb8qxzIy-9" value="" style="group" vertex="1" connectable="0" parent="1">
          <mxGeometry x="150" y="70" width="500" height="600" as="geometry" />
        </mxCell>
        <mxCell id="7cflbCVq24lOZb8qxzIy-5" value="" style="rounded=1;whiteSpace=wrap;html=1;fillColor=#f5f5f5;fontColor=#333333;strokeColor=#666666;" vertex="1" parent="7cflbCVq24lOZb8qxzIy-9">
          <mxGeometry y="480" width="500" height="120" as="geometry" />
        </mxCell>
        <mxCell id="7cflbCVq24lOZb8qxzIy-6" value="" style="rounded=1;whiteSpace=wrap;html=1;fillColor=#99FF33;strokeColor=#b85450;" vertex="1" parent="7cflbCVq24lOZb8qxzIy-9">
          <mxGeometry y="320" width="500" height="120" as="geometry" />
        </mxCell>
        <mxCell id="7cflbCVq24lOZb8qxzIy-7" value="" style="rounded=1;whiteSpace=wrap;html=1;fillColor=#f8cecc;strokeColor=#b85450;" vertex="1" parent="7cflbCVq24lOZb8qxzIy-9">
          <mxGeometry y="160" width="500" height="120" as="geometry" />
        </mxCell>
        <mxCell id="7cflbCVq24lOZb8qxzIy-8" value="" style="rounded=1;whiteSpace=wrap;html=1;fillColor=#d5e8d4;strokeColor=#82b366;" vertex="1" parent="7cflbCVq24lOZb8qxzIy-9">
          <mxGeometry width="500" height="120" as="geometry" />
        </mxCell>
        <mxCell id="7cflbCVq24lOZb8qxzIy-12" value="&lt;h2 style=&quot;line-height: 120%; font-size: 18px;&quot;&gt;数据采集层&lt;/h2&gt;" style="rounded=1;whiteSpace=wrap;html=1;horizontal=1;verticalAlign=middle;textDirection=ltr;fontFamily=Verdana;fillColor=#d5e8d4;strokeColor=#82b366;rotation=0;" vertex="1" parent="7cflbCVq24lOZb8qxzIy-9">
          <mxGeometry x="10" y="490" width="50" height="100" as="geometry" />
        </mxCell>
        <mxCell id="7cflbCVq24lOZb8qxzIy-17" value="dpdk" style="rounded=1;whiteSpace=wrap;html=1;" vertex="1" parent="7cflbCVq24lOZb8qxzIy-9">
          <mxGeometry x="113" y="515" width="151" height="60" as="geometry" />
        </mxCell>
        <mxCell id="7cflbCVq24lOZb8qxzIy-18" value="网络流量监控模块" style="rounded=1;whiteSpace=wrap;html=1;" vertex="1" parent="7cflbCVq24lOZb8qxzIy-9">
          <mxGeometry x="280" y="515" width="151" height="60" as="geometry" />
        </mxCell>
        <mxCell id="7cflbCVq24lOZb8qxzIy-16" value="&lt;font style=&quot;font-size: 18px;&quot;&gt;数据处理层&lt;/font&gt;" style="rounded=1;whiteSpace=wrap;html=1;fillColor=#d5e8d4;strokeColor=#82b366;" vertex="1" parent="7cflbCVq24lOZb8qxzIy-9">
          <mxGeometry x="10" y="330" width="50" height="90" as="geometry" />
        </mxCell>
        <mxCell id="7cflbCVq24lOZb8qxzIy-15" value="协议解析" style="rounded=1;whiteSpace=wrap;html=1;fillColor=#f5f5f5;fontColor=#333333;strokeColor=#666666;" vertex="1" parent="7cflbCVq24lOZb8qxzIy-9">
          <mxGeometry x="113" y="350" width="147" height="60" as="geometry" />
        </mxCell>
        <mxCell id="7cflbCVq24lOZb8qxzIy-13" value="流量清洗" style="rounded=1;whiteSpace=wrap;html=1;fillColor=#f5f5f5;fontColor=#333333;strokeColor=#666666;" vertex="1" parent="7cflbCVq24lOZb8qxzIy-9">
          <mxGeometry x="280" y="350" width="150" height="60" as="geometry" />
        </mxCell>
        <mxCell id="7cflbCVq24lOZb8qxzIy-20" value="&lt;font style=&quot;font-size: 18px;&quot;&gt;数据分析层&lt;/font&gt;" style="rounded=1;whiteSpace=wrap;html=1;fillColor=#d5e8d4;strokeColor=#82b366;" vertex="1" parent="7cflbCVq24lOZb8qxzIy-9">
          <mxGeometry x="10" y="175" width="50" height="90" as="geometry" />
        </mxCell>
        <mxCell id="7cflbCVq24lOZb8qxzIy-21" value="&lt;font style=&quot;font-size: 18px;&quot;&gt;页面展示层&lt;/font&gt;" style="rounded=1;whiteSpace=wrap;html=1;fillColor=#d5e8d4;strokeColor=#82b366;" vertex="1" parent="7cflbCVq24lOZb8qxzIy-9">
          <mxGeometry x="10" y="15" width="50" height="90" as="geometry" />
        </mxCell>
        <mxCell id="7cflbCVq24lOZb8qxzIy-22" value="违规外联检测" style="rounded=1;whiteSpace=wrap;html=1;fillColor=#f5f5f5;fontColor=#333333;strokeColor=#666666;" vertex="1" parent="7cflbCVq24lOZb8qxzIy-9">
          <mxGeometry x="110" y="205" width="120" height="60" as="geometry" />
        </mxCell>
        <mxCell id="7cflbCVq24lOZb8qxzIy-10" value="&lt;font style=&quot;font-size: 36px;&quot;&gt;违规外联检测平台&lt;/font&gt;" style="rounded=1;whiteSpace=wrap;html=1;" vertex="1" parent="1">
          <mxGeometry x="50" y="130" width="70" height="510" as="geometry" />
        </mxCell>
        <mxCell id="7cflbCVq24lOZb8qxzIy-11" value="&lt;font style=&quot;font-size: 36px;&quot;&gt;违规外联检测平台&lt;/font&gt;" style="rounded=1;whiteSpace=wrap;html=1;" vertex="1" parent="1">
          <mxGeometry x="680" y="130" width="70" height="510" as="geometry" />
        </mxCell>
      </root>
    </mxGraphModel>
  </diagram>
</mxfile>
